<?xml version="1.0" standalone="no"?><!DOCTYPE svg PUBLIC "-//W3C//DTD SVG 1.1//EN" "http://www.w3.org/Graphics/SVG/1.1/DTD/svg11.dtd"><svg t="1631549159928" class="icon" viewBox="0 0 1024 1024" version="1.1" xmlns="http://www.w3.org/2000/svg" p-id="2765" width="128" height="128" xmlns:xlink="http://www.w3.org/1999/xlink"><defs><style type="text/css"></style></defs><path d="M682.34 157.18v-112.2c0-5.52-4.48-10-10-10s-10 4.48-10 10v103.24c-13.86-5.56-28.28-9.98-43.16-13.16V70.94c0-5.52-4.46-10-10-10-5.52 0-10 4.48-10 10v60.6a270.34 270.34 0 0 0-71.58-0.28V70.94c0-5.52-4.48-10-10-10s-10 4.48-10 10v63.68a267.54 267.54 0 0 0-43.14 12.82V44.98c0-5.52-4.48-10-10-10s-10 4.48-10 10v111.24c-89.8 43.84-151.82 136.1-151.82 242.58v0.3c0.06 1.74 3.9 174.58-96.4 244.68-0.02 0.02-0.04 0.04-0.08 0.04l-0.06 0.06c-0.08 0.06-0.14 0.12-0.22 0.18-0.44 0.34-0.86 0.68-1.26 1.08-0.14 0.16-0.26 0.32-0.38 0.48-0.3 0.34-0.58 0.68-0.82 1.04-0.12 0.18-0.2 0.38-0.32 0.58-0.2 0.38-0.42 0.74-0.58 1.16-0.06 0.18-0.12 0.38-0.18 0.58-0.14 0.42-0.26 0.84-0.36 1.28-0.04 0.24-0.04 0.48-0.06 0.72-0.04 0.36-0.12 0.72-0.12 1.1 0 0.04 0.02 0.08 0.02 0.12 0 0.22 0.04 0.46 0.06 0.68 0.16 1.8 0.74 3.48 1.7 4.88l0.04 0.04c0.3 0.44 0.64 0.82 0.98 1.2 0.12 0.1 0.22 0.2 0.32 0.3 0.4 0.38 0.8 0.74 1.26 1.04 0.02 0 0.02 0.02 0.04 0.04 0.48 0.32 0.98 0.58 1.5 0.8 0.12 0.06 0.24 0.12 0.36 0.16 0.52 0.22 1.04 0.38 1.6 0.5 0.1 0.02 0.2 0.04 0.32 0.06 0.6 0.1 1.2 0.18 1.82 0.18H316.44v125.22c0 5.52 4.48 10 10 10h111.68v181.72c0 5.52 4.48 10 10 10H822.2c5.52 0 10-4.48 10-10V398.8c0-105.7-61.12-197.38-149.86-241.62z m-171.82 238.38a10.014 10.014 0 0 0 17.08-7.08V151.46c11.38-1.6 23-2.44 34.82-2.44 12.48 0 24.76 0.94 36.76 2.72v236.74a10.014 10.014 0 0 0 17.08 7.08l30.38-30.38c6.76-6.76 15.74-10.5 25.32-10.5 9.56 0 18.54 3.74 25.3 10.5 13.96 13.96 13.96 36.66 0 50.62l-108.4 108.42c-0.24 0.2-0.48 0.4-0.72 0.64-0.62 0.6-1.34 1.28-2.06 1.88-0.24 0.2-0.5 0.38-0.76 0.56l-1.3 0.96c-0.22 0.16-0.44 0.34-0.78 0.58-0.36 0.24-0.74 0.44-1.1 0.66l-1.16 0.7c-0.24 0.14-0.48 0.28-0.74 0.44-0.36 0.18-0.72 0.34-1.08 0.5l-1.2 0.58c-0.3 0.14-0.58 0.28-0.86 0.4-0.32 0.12-0.64 0.24-0.96 0.34l-1.32 0.48c-0.34 0.12-0.66 0.24-1.04 0.36-0.32 0.1-0.66 0.18-1 0.26l-1.32 0.32c-0.36 0.1-0.7 0.2-1.1 0.28-0.42 0.08-0.82 0.12-1.24 0.18l-1.46 0.22c-0.22 0.04-0.46 0.08-0.74 0.1-1.16 0.12-2.3 0.18-3.4 0.18-1.18-0.04-2.42-0.06-3.72-0.18-0.26-0.02-0.5-0.08-0.76-0.12l-1.52-0.22c-0.42-0.06-0.82-0.1-1.1-0.16-0.4-0.08-0.8-0.18-1.18-0.3l-1.3-0.32c-0.3-0.08-0.62-0.14-0.94-0.24-0.4-0.12-0.78-0.26-1.16-0.4l-1.28-0.46c-0.28-0.1-0.56-0.2-0.84-0.32-0.38-0.14-0.72-0.32-1.08-0.5l-1.14-0.54c-0.34-0.14-0.66-0.3-0.98-0.46-0.32-0.18-0.62-0.36-0.92-0.54l-1.22-0.74c-0.28-0.16-0.58-0.32-0.84-0.5-0.42-0.28-0.8-0.58-1.2-0.9l-0.44-0.32c-0.26-0.2-0.5-0.38-0.76-0.56-0.14-0.12-0.3-0.22-0.42-0.32-0.94-0.76-1.84-1.58-2.66-2.4l-108.54-108.54c-13.96-13.96-13.96-36.66 0-50.62a35.58 35.58 0 0 1 25.32-10.48c9.56 0 18.54 3.72 25.3 10.48l30.38 30.38zM812.2 969.02H458.12v-181.72c0-5.52-4.48-10-10-10h-111.68v-125.22c0-5.52-4.46-10-10-10h-96.86c34.06-32.9 58.82-81.44 72.24-142.24 11.82-53.58 10.92-97.7 10.82-101.18 0.04-95.04 53.46-177.82 131.82-219.98v106.3c0 5.52 4.48 10 10 10s10-4.48 10-10V169.04c13.78-5.9 28.2-10.58 43.14-13.94v209.24l-13.32-13.3c-10.52-10.54-24.54-16.34-39.44-16.34-14.92 0-28.92 5.8-39.46 16.34-21.76 21.76-21.76 57.14 0 78.9l108.52 108.52c1.3 1.3 2.68 2.56 4.16 3.78 0.44 0.34 0.88 0.68 1.34 1.02l0.84 0.62c0.7 0.54 1.42 1.06 2.18 1.58 0.58 0.4 1.2 0.76 1.82 1.12l0.94 0.58c0.64 0.38 1.28 0.76 1.92 1.1 0.66 0.34 1.3 0.66 1.96 0.96l0.9 0.42c0.68 0.34 1.38 0.66 2.06 0.94 0.64 0.28 1.28 0.5 1.94 0.74l1 0.36c0.74 0.26 1.48 0.54 2.22 0.76 0.68 0.2 1.38 0.38 2.06 0.54l0.92 0.24c0.78 0.2 1.54 0.4 2.42 0.56 0.72 0.14 1.46 0.24 2.18 0.36l1.12 0.16c0.68 0.1 1.36 0.2 2 0.26 1.78 0.18 3.56 0.28 5.3 0.28h0.22c1.78 0 3.64-0.08 5.46-0.26 0.68-0.08 1.34-0.18 2-0.28l0.94-0.14c0.84-0.12 1.68-0.24 2.48-0.4 0.74-0.14 1.46-0.32 2.18-0.5l1.04-0.26c0.7-0.18 1.4-0.36 2.08-0.56 0.72-0.22 1.42-0.46 2.12-0.72l1.06-0.38c0.66-0.24 1.32-0.48 2-0.76 0.64-0.26 1.26-0.56 1.88-0.86l0.9-0.42c0.74-0.34 1.48-0.68 2.16-1.06 0.58-0.3 1.14-0.64 1.68-0.96l0.88-0.54c0.74-0.42 1.46-0.86 2.08-1.26 0.6-0.42 1.18-0.84 1.76-1.28l0.96-0.72c0.6-0.42 1.18-0.86 1.7-1.3 1.28-1.02 2.42-2.1 3.18-2.84 0.3-0.26 0.6-0.52 0.9-0.84l108.56-108.56c21.76-21.76 21.76-57.16 0-78.9-10.54-10.54-24.54-16.36-39.44-16.36-14.92 0-28.92 5.82-39.46 16.36l-13.32 13.3V155.54c14.94 3.48 29.38 8.32 43.16 14.36v115.08c0 5.52 4.48 10 10 10s10-4.48 10-10V179.74c77.32 42.52 129.86 124.76 129.86 219.06v570.22z" fill="#23130D" p-id="2766"></path><path d="M697.26 415.8l-108.4 108.42c-0.24 0.2-0.48 0.4-0.72 0.64-0.62 0.6-1.34 1.28-2.06 1.88-0.24 0.2-0.5 0.38-0.76 0.56l-1.3 0.96c-0.22 0.16-0.44 0.34-0.78 0.58-0.36 0.24-0.74 0.44-1.1 0.66l-1.16 0.7c-0.24 0.14-0.48 0.28-0.74 0.44-0.36 0.18-0.72 0.34-1.08 0.5l-1.2 0.58c-0.3 0.14-0.58 0.28-0.86 0.4-0.32 0.12-0.64 0.24-0.96 0.34l-1.32 0.48c-0.34 0.12-0.66 0.24-1.04 0.36-0.32 0.1-0.66 0.18-1 0.26l-1.32 0.32c-0.36 0.1-0.7 0.2-1.1 0.28-0.42 0.08-0.82 0.12-1.24 0.18l-1.46 0.22c-0.22 0.04-0.46 0.08-0.74 0.1-1.16 0.12-2.3 0.18-3.4 0.18-1.18-0.04-2.42-0.06-3.72-0.18-0.26-0.02-0.5-0.08-0.76-0.12l-1.52-0.22c-0.42-0.06-0.82-0.1-1.1-0.16-0.4-0.08-0.8-0.18-1.18-0.3l-1.3-0.32c-0.3-0.08-0.62-0.14-0.94-0.24-0.4-0.12-0.78-0.26-1.16-0.4l-1.28-0.46c-0.28-0.1-0.56-0.2-0.84-0.32-0.38-0.14-0.72-0.32-1.08-0.5l-1.14-0.54c-0.34-0.14-0.66-0.3-0.98-0.46-0.32-0.18-0.62-0.36-0.92-0.54l-1.22-0.74c-0.28-0.16-0.58-0.32-0.84-0.5-0.42-0.28-0.8-0.58-1.2-0.9l-0.44-0.32c-0.26-0.2-0.5-0.38-0.76-0.56-0.14-0.12-0.3-0.22-0.42-0.32-0.94-0.76-1.84-1.58-2.66-2.4l-108.54-108.54c-13.96-13.96-13.96-36.66 0-50.62a35.58 35.58 0 0 1 25.32-10.48c9.56 0 18.54 3.72 25.3 10.48l30.38 30.38a10.014 10.014 0 0 0 17.08-7.08V151.46c11.38-1.6 23-2.44 34.82-2.44 12.48 0 24.76 0.94 36.76 2.72v236.74a10.014 10.014 0 0 0 17.08 7.08l30.38-30.38c6.76-6.76 15.74-10.5 25.32-10.5 9.56 0 18.54 3.74 25.3 10.5 13.96 13.96 13.96 36.66 0 50.62z" fill="#3594BF" p-id="2767"></path><path d="M697.26 415.8l-108.4 108.42c-0.24 0.2-0.48 0.4-0.72 0.64-0.62 0.6-1.34 1.28-2.06 1.88-0.24 0.2-0.5 0.38-0.76 0.56l-1.3 0.96c-0.22 0.16-0.44 0.34-0.78 0.58-0.36 0.24-0.74 0.44-1.1 0.66l-1.16 0.7c-0.24 0.14-0.48 0.28-0.74 0.44-0.36 0.18-0.72 0.34-1.08 0.5l-1.2 0.58c-0.3 0.14-0.58 0.28-0.86 0.4-0.32 0.12-0.64 0.24-0.96 0.34l-1.32 0.48c-0.34 0.12-0.66 0.24-1.04 0.36-0.32 0.1-0.66 0.18-1 0.26l-1.32 0.32c-0.36 0.1-0.7 0.2-1.1 0.28-0.42 0.08-0.82 0.12-1.24 0.18l-1.46 0.22c-0.22 0.04-0.46 0.08-0.74 0.1-1.16 0.12-2.3 0.18-3.4 0.18-1.18-0.04-2.42-0.06-3.72-0.18-0.26-0.02-0.5-0.08-0.76-0.12l-1.52-0.22c-0.42-0.06-0.82-0.1-1.1-0.16-0.4-0.08-0.8-0.18-1.18-0.3l-1.3-0.32c-0.3-0.08-0.62-0.14-0.94-0.24-0.4-0.12-0.78-0.26-1.16-0.4l-1.28-0.46c-0.28-0.1-0.56-0.2-0.84-0.32-0.38-0.14-0.72-0.32-1.08-0.5l-1.14-0.54c-0.34-0.14-0.66-0.3-0.98-0.46-0.32-0.18-0.62-0.36-0.92-0.54l-1.22-0.74c-0.28-0.16-0.58-0.32-0.84-0.5-0.42-0.28-0.8-0.58-1.2-0.9l-0.44-0.32c-0.26-0.2-0.5-0.38-0.76-0.56-0.14-0.12-0.3-0.22-0.42-0.32-0.94-0.76-1.84-1.58-2.66-2.4l-108.54-108.54c-10.98-10.98-13.32-27.36-7.04-40.64a35.4 35.4 0 0 0 7.04 9.98l108.54 108.54c0.82 0.82 1.72 1.64 2.66 2.4 0.12 0.1 0.28 0.2 0.42 0.32 0.26 0.18 0.5 0.36 0.76 0.56l0.44 0.32c0.4 0.32 0.78 0.62 1.2 0.9 0.26 0.18 0.56 0.34 0.84 0.5l1.22 0.74c0.3 0.18 0.6 0.36 0.92 0.54 0.32 0.16 0.64 0.32 0.98 0.46l1.14 0.54c0.36 0.18 0.7 0.36 1.08 0.5 0.28 0.12 0.56 0.22 0.84 0.32l1.28 0.46c0.38 0.14 0.76 0.28 1.16 0.4 0.32 0.1 0.64 0.16 0.94 0.24l1.3 0.32c0.38 0.12 0.78 0.22 1.18 0.3 0.28 0.06 0.68 0.1 1.1 0.16l1.52 0.22c0.26 0.04 0.5 0.1 0.76 0.12 1.3 0.12 2.54 0.14 3.72 0.18 1.1 0 2.24-0.06 3.4-0.18 0.28-0.02 0.52-0.06 0.74-0.1l1.46-0.22c0.42-0.06 0.82-0.1 1.24-0.18 0.4-0.08 0.74-0.18 1.1-0.28l1.32-0.32c0.34-0.08 0.68-0.16 1-0.26 0.38-0.12 0.7-0.24 1.04-0.36l1.32-0.48c0.32-0.1 0.64-0.22 0.96-0.34 0.28-0.12 0.56-0.26 0.86-0.4l1.2-0.58c0.36-0.16 0.72-0.32 1.08-0.5 0.26-0.16 0.5-0.3 0.74-0.44l1.16-0.7c0.36-0.22 0.74-0.42 1.1-0.66 0.34-0.24 0.56-0.42 0.78-0.58l1.3-0.96c0.26-0.18 0.52-0.36 0.76-0.56 0.72-0.6 1.44-1.28 2.06-1.88 0.24-0.24 0.48-0.44 0.72-0.64l108.4-108.42c2.98-2.98 5.32-6.36 7.04-9.98 6.28 13.28 3.94 29.66-7.04 40.64z" fill="#23130D" opacity=".2" p-id="2768"></path><path d="M812.2 398.8v570.22H458.12v-181.72c0-5.52-4.48-10-10-10h-111.68v-125.22c0-5.52-4.46-10-10-10h-96.86c34.06-32.9 58.82-81.44 72.24-142.24 11.82-53.58 10.92-97.7 10.82-101.18 0.04-95.04 53.46-177.82 131.82-219.98v106.3c0 5.52 4.48 10 10 10s10-4.48 10-10V169.04c13.78-5.9 28.2-10.58 43.14-13.94v209.24l-13.32-13.3c-10.52-10.54-24.54-16.34-39.44-16.34-14.92 0-28.92 5.8-39.46 16.34-21.76 21.76-21.76 57.14 0 78.9l108.52 108.52c1.3 1.3 2.68 2.56 4.16 3.78 0.44 0.34 0.88 0.68 1.34 1.02l0.84 0.62c0.7 0.54 1.42 1.06 2.18 1.58 0.58 0.4 1.2 0.76 1.82 1.12l0.94 0.58c0.64 0.38 1.28 0.76 1.92 1.1 0.66 0.34 1.3 0.66 1.96 0.96l0.9 0.42c0.68 0.34 1.38 0.66 2.06 0.94 0.64 0.28 1.28 0.5 1.94 0.74l1 0.36c0.74 0.26 1.48 0.54 2.22 0.76 0.68 0.2 1.38 0.38 2.06 0.54l0.92 0.24c0.78 0.2 1.54 0.4 2.42 0.56 0.72 0.14 1.46 0.24 2.18 0.36l1.12 0.16c0.68 0.1 1.36 0.2 2 0.26 1.78 0.18 3.56 0.28 5.3 0.28h0.22c1.78 0 3.64-0.08 5.46-0.26 0.68-0.08 1.34-0.18 2-0.28l0.94-0.14c0.84-0.12 1.68-0.24 2.48-0.4 0.74-0.14 1.46-0.32 2.18-0.5l1.04-0.26c0.7-0.18 1.4-0.36 2.08-0.56 0.72-0.22 1.42-0.46 2.12-0.72l1.06-0.38c0.66-0.24 1.32-0.48 2-0.76 0.64-0.26 1.26-0.56 1.88-0.86l0.9-0.42c0.74-0.34 1.48-0.68 2.16-1.06 0.58-0.3 1.14-0.64 1.68-0.96l0.88-0.54c0.74-0.42 1.46-0.86 2.08-1.26 0.6-0.42 1.18-0.84 1.76-1.28l0.96-0.72c0.6-0.42 1.18-0.86 1.7-1.3 1.28-1.02 2.42-2.1 3.18-2.84 0.3-0.26 0.6-0.52 0.9-0.84l108.56-108.56c21.76-21.76 21.76-57.16 0-78.9-10.54-10.54-24.54-16.36-39.44-16.36-14.92 0-28.92 5.82-39.46 16.36l-13.32 13.3V155.54c14.94 3.48 29.38 8.32 43.16 14.36v115.08c0 5.52 4.48 10 10 10s10-4.48 10-10V179.74c77.32 42.52 129.86 124.76 129.86 219.06z" fill="#F8D3C9" p-id="2769"></path><path d="M366.44 652.08v125.22h-30v-125.22c0-5.52-4.46-10-10-10h30c5.54 0 10 4.48 10 10zM444.46 178.68v19.02c-61.68 45.48-101.78 118.62-101.82 200.96 0.1 3.48 1 47.6-10.82 101.18-13.42 60.8-38.18 109.34-72.24 142.24h-30c34.06-32.9 58.82-81.44 72.24-142.24 11.82-53.58 10.92-97.7 10.82-101.18 0.04-95.04 53.46-177.82 131.82-219.98zM488.12 787.3v181.72h-30v-181.72c0-5.52-4.48-10-10-10h30c5.52 0 10 4.48 10 10z" fill="#FFFFFF" opacity=".6" p-id="2770"></path><path d="M812.2 398.8v570.22h-30V398.8c0-81.52-39.26-154.02-99.86-199.64v-19.42c77.32 42.52 129.86 124.76 129.86 219.06z" fill="#23130D" opacity=".2" p-id="2771"></path></svg>